<?xml version="1.0" encoding="iso-8859-1"?>
<!-- Uploaded to: SVG Repo, www.svgrepo.com, Generator: SVG Repo Mixer Tools -->
<svg height="800px" width="800px" version="1.1" id="Capa_1" xmlns="http://www.w3.org/2000/svg" xmlns:xlink="http://www.w3.org/1999/xlink" 
	 viewBox="0 0 193.917 193.917" xml:space="preserve">
<g>
	<path style="fill:#010002;" d="M145.526,49.603l22.227-13.115h-42.609V0H69.848v36.487H27.263l21.743,12.829L22.34,64.675v86.168
		l74.795,43.075l74.443-43.081V64.675L145.526,49.603z M75.821,42.454V5.967h43.361v36.487h26.726L97.517,71.018L49.125,42.454
		C49.125,42.454,75.821,42.454,75.821,42.454z M94.599,186.638l-67.205-38.713V70.684L94.599,108.8V186.638z M97.117,104.42
		l-67.342-38.2L54,52.27l43.504,25.675l43.021-25.389l23.623,13.676L97.117,104.42z M166.529,147.931l-66.877,38.701V108.8
		l66.877-38.11V147.931z"/>
</g>
</svg>